PathFileType	4	(X/Y/Z)	pose_F01_0-96.trc
DataRate	CameraRate	NumFrames	NumMarkers	Units	OrigDataRate	OrigDataStartFrame	OrigNumFrames
30	30	10	21	m	30	60	96
Frame#	Time	CHip			RHip			RKnee			RAnkle			RBigToe			RSmallToe			RHeel			LHip			LKnee			LAnkle			LBigToe			LSmallToe			LHeel			Neck			Nose			RShoulder			RElbow			RWrist			LShoulder			LElbow			LWrist			
		X1	Y1	Z1	X2	Y2	Z2	X3	Y3	Z3	X4	Y4	Z4	X5	Y5	Z5	X6	Y6	Z6	X7	Y7	Z7	X8	Y8	Z8	X9	Y9	Z9	X10	Y10	Z10	X11	Y11	Z11	X12	Y12	Z12	X13	Y13	Z13	X14	Y14	Z14	X15	Y15	Z15	X16	Y16	Z16	X17	Y17	Z17	X18	Y18	Z18	X19	Y19	Z19	X20	Y20	Z20	X21	Y21	Z21	
60	2.0	-0.16142874278072802	1.8649184869599649	-0.5098887697224429	-0.16436807608497409	1.8625912310340804	-0.44460381906696006	-0.14588373240482855	1.690443904098738	-0.4143853574636093	-0.18876011250058752	1.525467496791756	-0.38617125704752076	-0.13196074875869224	1.4798548351643557	-0.36853945233730767	-0.14631042982251805	1.4862212547691143	-0.3479157775173845	-0.20189924080114807	1.5080896964454678	-0.39224759501664713	-0.15396546029413186	1.8689545063347002	-0.571207284881488	-0.18557911749661768	1.7000828679775202	-0.5724496705781086													-0.17348726175798576	2.054654010881564	-0.5112972764007567	-0.129764251434194	2.1412843975436897	-0.5200700572204915	-0.1747719008385417	2.0532384288805425	-0.42632732775810356	-0.0839539780994438	2.0486032363171343	-0.40603909499021146	-0.012229021961844904	2.1111654860819615	-0.3903192927814187	-0.16517797310801058	2.0557750320585537	-0.6048407517338301	-0.14549894226041601	1.9690050172245455	-0.6222920070393556	-0.07406309487587359	1.939089652664285	-0.5631110798797212
61	2.033333333333333	-0.16241965969698646	1.8636319575231202	-0.5040733986871442	-0.16608496287598104	1.8599017237984419	-0.4417713408383761	-0.14442745934541587	1.6909566672624212	-0.41153576761451144	-0.18909797996882033	1.5244443463751294	-0.3854788930170537	-0.13213659133416977	1.4810740569430547	-0.3686208725204831	-0.1495072081738432	1.487475736555857	-0.34016466211952995	-0.20212449496177884	1.5089045637103273	-0.3922934723203596	-0.1557652629570166	1.8684979320245028	-0.5686048242638674	-0.18444331462669117	1.6982094752993795	-0.5776778924555921													-0.17156181681588156	2.053986145944056	-0.5043800241362433	-0.1307191170671017	2.139820706247423	-0.5139660584676612	-0.1720479847699864	2.0521309850781106	-0.4252994712135538	-0.0822522595304218	2.046063342068921	-0.3998330161476831	-0.008556325193988122	2.113444789814181	-0.38651109286933605	-0.1624630633369107	2.0573169628253907	-0.5952009210824982	-0.1465329655041223	1.9682319061662028	-0.616547873956107	-0.07813390878199987	1.9372134120434832	-0.5577699416280746
62	2.066666666666667	-0.16157577057034686	1.8646581886684113	-0.50099947937338	-0.16629152317237456	1.8601515874394121	-0.4417596354936945	-0.1413914635650271	1.6872598998522634	-0.4099012800649113	-0.18912321891735953	1.524494053554051	-0.3855446852243404	-0.1323124339096473	1.4822932787217535	-0.3687022927036585	-0.14769396644922325	1.4880766294724337	-0.3425068014895845	-0.2051211228141777	1.508739996921092	-0.39339089790767534	-0.15498934171115403	1.8672788796104896	-0.5651887497067002	-0.17849265395571354	1.6991056153694362	-0.5755820860148406													-0.17063208302153235	2.05288853989569	-0.5011779192662399	-0.1280141147683562	2.1391949676719264	-0.5037470256850111	-0.17099011859419413	2.0506211011833697	-0.42142014048018894	-0.07920767525567807	2.0467983273642854	-0.397917071013035	0.0005489192725413092	2.111280115693447	-0.38740074074742975	-0.16075068789754174	2.056210591909967	-0.5890303922540818	-0.14367105710036066	1.9673475316982112	-0.615573173068954	-0.06933745563348055	1.9338833798069097	-0.5638119789791751
63	2.1	-0.16085339316969993	1.8663953513594342	-0.4979158865910071	-0.16551607598155021	1.8618241288335617	-0.43867456080857076	-0.13880636550895534	1.6873585346532693	-0.4082289438696046	-0.18898400127193793	1.5263460520992362	-0.3862245895400524	-0.13248827648512482	1.4835125005004526	-0.368783712886834	-0.15175480702221555	1.4885862645410053	-0.338072284050867	-0.20475343812593683	1.5097340950058347	-0.3940726767706815	-0.15706247692245284	1.867818668734364	-0.5628697302995259	-0.17507758474866503	1.699292845772377	-0.5750012155972348													-0.16883333999979983	2.0516620006552713	-0.4951047587244194	-0.12437312226367311	2.1402524465146704	-0.5003937262904423	-0.1690953639627806	2.0492945215873957	-0.41504728607002644	-0.07553810708903978	2.049128433623034	-0.3859360174370601	0.011247491441545132	2.1155399793870746	-0.37683123227964455	-0.15782477802623898	2.0547024632793627	-0.5876938759305698	-0.1440394128108341	1.9660203529932347	-0.6065350182906615	-0.0764752214435779	1.9342532006753954	-0.5507559213313221
64	2.1333333333333333	-0.1595646630554927	1.8617952617816238	-0.49374074767519155	-0.16308914817178666	1.8584297879079736	-0.43131717002722114	-0.13783788166037794	1.6879962526101526	-0.4138780947610941	-0.18836035409555574	1.523340188368305	-0.38162866776186344	-0.13266411906060235	1.4847317222791516	-0.3688651330700094	-0.14711398960623862	1.4894986743616216	-0.34766876529574786	-0.20380123897686775	1.5075232100859501	-0.39045052260868246	-0.15598955052383542	1.8648789082967003	-0.559081963790748	-0.17883621569216343	1.695999206284102	-0.5704838149845803													-0.16608961462618876	2.050575539402078	-0.49410019079483347	-0.12344873416195191	2.1388406371128577	-0.4965178407383009	-0.167160039813721	2.047615441581444	-0.408104873249662	-0.06797288105387002	2.049449160050123	-0.38538373330935866	0.024291716058653882	2.1139607708318144	-0.38276874902338887	-0.15697098561504894	2.0551504981888007	-0.5852560563197005	-0.14020107749176855	1.966375666168877	-0.6024336228402707	-0.06880443111625581	1.9326282458380566	-0.5513477408717743
65	2.1666666666666665	-0.15883333300089372	1.8632278191870268	-0.49069498264569616	-0.16431401247202893	1.8587385304339594	-0.42584680111325784	-0.13939805392426252	1.6854028545548867	-0.41168687064456266	-0.18916136054844138	1.5247613581198693	-0.3855950413310405	-0.13266411906060235	1.4847317222791516	-0.3688651330700094	-0.1503479298394085	1.4908899382331273	-0.3399194734264835	-0.20330806515787866	1.5094928209819378	-0.3955796808637177	-0.15507936756682839	1.8674735753305707	-0.556259670272969	-0.1775634815306269	1.696224416537675	-0.5676261450668789													-0.16797221532189358	2.0505111838026506	-0.49188138209302634	-0.12342166223036388	2.138815976852716	-0.49636628384801823	-0.16720813499507398	2.0479769670288763	-0.4087812317974628	-0.06606341233226773	2.0468365095444723	-0.39616686765558123	0.026504971909621398	2.106200597528748	-0.39281587100205634	-0.16106726736977128	2.0559528157328217	-0.5805498802261021	-0.1424126169858172	1.9662570946790239	-0.6005286419284763	-0.07114556811066823	1.9325230821312387	-0.5491302671582939
66	2.2	-0.1607697903327201	1.8628112576572626	-0.4885066888270759	-0.16438696785070983	1.8586402676955698	-0.42583563997087437	-0.13999720486087047	1.6896486037013398	-0.4115731814357344	-0.18929073857243103	1.5230534376128677	-0.384898135674365	-0.13266411906060235	1.4847317222791516	-0.3688651330700094	-0.15121368625403575	1.490375993155879	-0.3432573111358644	-0.2031719153245109	1.509005287282221	-0.3955392985022472	-0.15529343433297155	1.866036845669343	-0.555999847702298	-0.17877365842077145	1.6997410487142108	-0.566632119639033													-0.16600919445657694	2.0516154186987094	-0.49396894558569393	-0.12336716911398161	2.138724722025755	-0.49644119477375215	-0.16730578899889112	2.04699025535317	-0.40886710052336384	-0.07010667794766444	2.044739506036345	-0.39255910899767016	0.02632044758672596	2.102555133147021	-0.39472215511455655	-0.1569146689446116	2.056169796635728	-0.5851359620887605	-0.1433130815055669	1.9675973328933025	-0.6040453302569652	-0.0692515900099263	1.9330449571460862	-0.5517258446254566
67	2.2333333333333334	-0.16157236460811591	1.8641370129047872	-0.4919963886644062	-0.16611795935482226	1.8598833307273073	-0.43264584989140614	-0.13934468085499713	1.6850851220369096	-0.41173387922614263	-0.18905189048196508	1.5242812835378838	-0.3855193786640539	-0.13266411906060235	1.4847317222791516	-0.3688651330700094	-0.15086912225505927	1.4886802657481935	-0.3436914117567088	-0.20401632921564536	1.508664076590268	-0.3901279336442354	-0.15802054980711353	1.867160998249832	-0.5572369372649998	-0.17574273763978382	1.6981587268810363	-0.5741401546683536													-0.1686622678026583	2.0551384920443603	-0.49527517437709734	-0.12341867371957269	2.1387834183835635	-0.49647509415062546	-0.16810100378253984	2.0515889377381	-0.4122390194320551	-0.07280704005216941	2.046586857986383	-0.39416203841627734	0.024918227540074053	2.1079905558099283	-0.4048359539548603	-0.1577096261417751	2.0586716105239193	-0.5885790585037382	-0.14337861369784666	1.9701707604900307	-0.6044496658978293	-0.07434773846408081	1.9373037061918907	-0.5418724332166548
68	2.2666666666666666	-0.16297260835660615	1.8646114902013657	-0.4953557636813907	-0.1676063453684457	1.8602116394925285	-0.436120983809721	-0.1414867045429695	1.685764482520543	-0.40957206580930733	-0.18909786791574718	1.5244075481491735	-0.38559863549473616	-0.13266411906060235	1.4847317222791516	-0.3688651330700094	-0.1509132164680864	1.4889021534124343	-0.3436689443460454	-0.20502582627918114	1.5084022282378338	-0.39340970484706916	-0.1565507792819243	1.867411793681829	-0.5595753030169306	-0.17866792786727076	1.6984568665621305	-0.5666512983572307													-0.16970071190860833	2.0562721998294484	-0.49841181490385245	-0.1261741418014	2.1375893659635143	-0.4966851395391856	-0.17184166075509344	2.0528403287903014	-0.41658704828472376	-0.07262365165460852	2.0499773071356544	-0.40278843721053936	0.02068031143213052	2.1186828553371906	-0.41233728303037537	-0.16476138045033747	2.060196925219889	-0.5846619162757792	-0.1420906443321061	1.9704636931578285	-0.6097681214152695	-0.0661015788734684	1.939329612439011	-0.551811608846413
69	2.3	-0.16072713763533697	1.8635807978359458	-0.4973895416488051	-0.16546281196509377	1.8605961446051509	-0.43834430061286994	-0.14146429109494071	1.6855758998835142	-0.4095447490249303	-0.18831713217570237	1.5231110571731767	-0.3816174784238157	-0.13266411906060235	1.4847317222791516	-0.3688651330700094	-0.1501454679653097	1.490197384746148	-0.3398891185108641	-0.20385944251360788	1.50816354552007	-0.3900715789478708	-0.15605451779861965	1.8670769838560974	-0.5596272290349075	-0.17950609084266647	1.6979828453644896	-0.5700079484501634													-0.1715375947529301	2.056533602077448	-0.504598388782898	-0.12526587326166394	2.136657299554168	-0.5021917731833306	-0.1738411579189815	2.053086886109383	-0.4229823430857518	-0.0800414305683284	2.050863290516314	-0.4024223840296327	0.005816752324619717	2.1209044096417187	-0.41154890416126166	-0.16556123411650897	2.0615198126449457	-0.5876678652862932	-1.6846229312395005	1.885713310149679	1.0698281101269276	-0.0738509810358889	1.943104581434808	-0.5517556063274637
